<svg width="55" height="13" viewBox="0 0 55 13" fill="none" xmlns="http://www.w3.org/2000/svg">
<path opacity="0.7" d="M6.528 12.08C5.46133 12.08 4.49067 11.8293 3.616 11.328C2.74133 10.816 2.05333 10.128 1.552 9.264C1.05067 8.38933 0.8 7.41867 0.8 6.352C0.8 5.28533 1.05067 4.32 1.552 3.456C2.05333 2.58133 2.74133 1.89333 3.616 1.392C4.49067 0.890666 5.46133 0.639999 6.528 0.639999C7.59467 0.639999 8.56 0.890666 9.424 1.392C10.2987 1.89333 10.9867 2.58133 11.488 3.456C11.9893 4.32 12.24 5.28533 12.24 6.352C12.24 7.41867 11.9893 8.38933 11.488 9.264C10.9867 10.128 10.2987 10.816 9.424 11.328C8.54933 11.8293 7.584 12.08 6.528 12.08ZM6.528 11.36C7.456 11.36 8.29867 11.1413 9.056 10.704C9.81333 10.2667 10.4053 9.664 10.832 8.896C11.2693 8.128 11.488 7.28 11.488 6.352C11.488 5.424 11.2693 4.58133 10.832 3.824C10.4053 3.056 9.81333 2.45333 9.056 2.016C8.29867 1.57867 7.456 1.36 6.528 1.36C5.58933 1.36 4.74133 1.57867 3.984 2.016C3.22667 2.45333 2.62933 3.056 2.192 3.824C1.76533 4.58133 1.552 5.424 1.552 6.352C1.552 7.28 1.76533 8.128 2.192 8.896C2.62933 9.664 3.22667 10.2667 3.984 10.704C4.74133 11.1413 5.58933 11.36 6.528 11.36ZM6.64 9.808C5.65867 9.808 4.87467 9.49867 4.288 8.88C3.70133 8.26133 3.408 7.41867 3.408 6.352C3.408 5.296 3.70133 4.45867 4.288 3.84C4.87467 3.22133 5.65867 2.912 6.64 2.912C7.45067 2.912 8.16533 3.152 8.784 3.632C8.93333 3.73867 9.008 3.888 9.008 4.08C9.008 4.208 8.97067 4.32533 8.896 4.432C8.832 4.528 8.736 4.576 8.608 4.576C8.512 4.576 8.38933 4.53333 8.24 4.448C7.93067 4.256 7.66933 4.11733 7.456 4.032C7.24267 3.936 6.98667 3.888 6.688 3.888C6.02667 3.888 5.52 4.10133 5.168 4.528C4.82667 4.944 4.656 5.552 4.656 6.352C4.656 7.16267 4.82667 7.78133 5.168 8.208C5.52 8.624 6.02667 8.832 6.688 8.832C6.98667 8.832 7.24267 8.78933 7.456 8.704C7.66933 8.608 7.93067 8.464 8.24 8.272C8.38933 8.18667 8.512 8.144 8.608 8.144C8.736 8.144 8.832 8.19733 8.896 8.304C8.97067 8.4 9.008 8.512 9.008 8.64C9.008 8.82133 8.93333 8.97067 8.784 9.088C8.24 9.568 7.52533 9.808 6.64 9.808ZM25.2999 10.896C25.4919 10.896 25.6412 10.944 25.7479 11.04C25.8545 11.136 25.9079 11.2693 25.9079 11.44C25.9079 11.8133 25.7052 12 25.2999 12H19.0279C18.8465 12 18.6972 11.9467 18.5799 11.84C18.4625 11.7227 18.4039 11.584 18.4039 11.424C18.4039 11.2213 18.4785 11.0453 18.6279 10.896L22.4839 6.656C23.0172 6.05867 23.4012 5.52533 23.6359 5.056C23.8812 4.576 24.0039 4.096 24.0039 3.616C24.0039 2.99733 23.8225 2.52267 23.4599 2.192C23.1079 1.86133 22.6065 1.696 21.9559 1.696C21.4439 1.696 20.9532 1.792 20.4839 1.984C20.0145 2.16533 19.5452 2.448 19.0759 2.832C18.9159 2.96 18.7665 3.024 18.6279 3.024C18.5105 3.024 18.4092 2.97067 18.3239 2.864C18.2385 2.74667 18.1959 2.608 18.1959 2.448C18.1959 2.224 18.2812 2.04267 18.4519 1.904C18.8892 1.49867 19.4225 1.17867 20.0519 0.943999C20.6812 0.709332 21.3265 0.591999 21.9879 0.591999C23.0012 0.591999 23.8065 0.858666 24.4039 1.392C25.0119 1.92533 25.3159 2.64533 25.3159 3.552C25.3159 4.20267 25.1665 4.82667 24.8679 5.424C24.5799 6.02133 24.0999 6.688 23.4279 7.424L20.2279 10.896H25.2999ZM31.5656 12.128C30.275 12.128 29.2936 11.6373 28.6216 10.656C27.9496 9.67467 27.6136 8.24533 27.6136 6.368C27.6136 4.48 27.9496 3.04533 28.6216 2.064C29.2936 1.08267 30.275 0.591999 31.5656 0.591999C32.8563 0.591999 33.8376 1.08267 34.5096 2.064C35.1816 3.03467 35.5176 4.464 35.5176 6.352C35.5176 8.24 35.1816 9.67467 34.5096 10.656C33.8376 11.6373 32.8563 12.128 31.5656 12.128ZM31.5656 11.024C32.4616 11.024 33.123 10.6453 33.5496 9.888C33.9763 9.13067 34.1896 7.952 34.1896 6.352C34.1896 4.74133 33.9763 3.56267 33.5496 2.816C33.1336 2.06933 32.4723 1.696 31.5656 1.696C30.6696 1.696 30.0083 2.07467 29.5816 2.832C29.155 3.57867 28.9416 4.752 28.9416 6.352C28.9416 7.952 29.155 9.13067 29.5816 9.888C30.0083 10.6453 30.6696 11.024 31.5656 11.024ZM44.4874 10.896C44.6794 10.896 44.8287 10.944 44.9354 11.04C45.042 11.136 45.0954 11.2693 45.0954 11.44C45.0954 11.8133 44.8927 12 44.4874 12H38.2154C38.034 12 37.8847 11.9467 37.7674 11.84C37.65 11.7227 37.5914 11.584 37.5914 11.424C37.5914 11.2213 37.666 11.0453 37.8154 10.896L41.6714 6.656C42.2047 6.05867 42.5887 5.52533 42.8234 5.056C43.0687 4.576 43.1914 4.096 43.1914 3.616C43.1914 2.99733 43.01 2.52267 42.6474 2.192C42.2954 1.86133 41.794 1.696 41.1434 1.696C40.6314 1.696 40.1407 1.792 39.6714 1.984C39.202 2.16533 38.7327 2.448 38.2634 2.832C38.1034 2.96 37.954 3.024 37.8154 3.024C37.698 3.024 37.5967 2.97067 37.5114 2.864C37.426 2.74667 37.3834 2.608 37.3834 2.448C37.3834 2.224 37.4687 2.04267 37.6394 1.904C38.0767 1.49867 38.61 1.17867 39.2394 0.943999C39.8687 0.709332 40.514 0.591999 41.1754 0.591999C42.1887 0.591999 42.994 0.858666 43.5914 1.392C44.1994 1.92533 44.5034 2.64533 44.5034 3.552C44.5034 4.20267 44.354 4.82667 44.0554 5.424C43.7674 6.02133 43.2874 6.688 42.6154 7.424L39.4154 10.896H44.4874ZM53.8251 10.896C54.0171 10.896 54.1665 10.944 54.2731 11.04C54.3798 11.136 54.4331 11.2693 54.4331 11.44C54.4331 11.6213 54.3798 11.76 54.2731 11.856C54.1771 11.952 54.0278 12 53.8251 12H48.5291C48.3265 12 48.1718 11.952 48.0651 11.856C47.9691 11.76 47.9211 11.6213 47.9211 11.44C47.9211 11.2693 47.9745 11.136 48.0811 11.04C48.1878 10.944 48.3371 10.896 48.5291 10.896H50.5131V2.32L48.7691 3.456C48.6838 3.50933 48.5985 3.536 48.5131 3.536C48.3638 3.536 48.2305 3.46667 48.1131 3.328C48.0065 3.18933 47.9531 3.04 47.9531 2.88C47.9531 2.656 48.0385 2.496 48.2091 2.4L50.6411 0.815999C50.8225 0.698666 51.0091 0.639999 51.2011 0.639999C51.3825 0.639999 51.5318 0.698666 51.6491 0.815999C51.7665 0.933333 51.8251 1.09867 51.8251 1.312V10.896H53.8251Z" fill="white"/>
</svg>
